<svg width="32" height="32" viewBox="0 0 32 32" fill="none" xmlns="http://www.w3.org/2000/svg">
  <!-- Outer Circle -->
  <circle cx="16" cy="16" r="13.44" stroke="#3b82f6" stroke-width="0.48" fill="none" opacity="0.8"/>

  <!-- Inner Sacred Hexagon -->
  <path d="M16,4.8 L23.04,9.6 L23.04,17.6 L16,22.4 L8.96,17.6 L8.96,9.6 Z" stroke="#3b82f6" stroke-width="0.48" fill="#3b82f6" opacity="0.1"/>

  <!-- Central Yantra Star -->
  <g transform="translate(16,16)">
    <!-- Main 6-pointed star -->
    <path d="M0,-5.76 L3.84,2.88 L-3.84,2.88 Z" fill="#3b82f6" opacity="0.9"/>
    <path d="M0,5.76 L-3.84,-2.88 L3.84,-2.88 Z" fill="#3b82f6" opacity="0.9"/>

    <!-- Central circle -->
    <circle cx="0" cy="0" r="2.56" fill="none" stroke="#059669" stroke-width="0.64" opacity="0.8"/>

    <!-- Central bindu (source point) -->
    <circle cx="0" cy="0" r="0.96" fill="#059669"/>

    <!-- Tech nodes at cardinal points -->
    <g opacity="0.7">
      <rect x="-0.32" y="-4.8" width="0.64" height="1.28" fill="#059669"/>
      <rect x="-0.32" y="3.52" width="0.64" height="1.28" fill="#059669"/>
      <rect x="3.52" y="-0.32" width="1.28" height="0.64" fill="#059669"/>
      <rect x="-4.8" y="-0.32" width="1.28" height="0.64" fill="#059669"/>
    </g>
  </g>

  <!-- Corner Code Brackets -->
  <g opacity="0.6" stroke="#3b82f6" stroke-width="0.48" fill="none">
    <path d="M6.4,6.4 L4.8,6.4 L4.8,8"/>
    <path d="M25.6,6.4 L27.2,6.4 L27.2,8"/>
    <path d="M6.4,25.6 L4.8,25.6 L4.8,24"/>
    <path d="M25.6,25.6 L27.2,25.6 L27.2,24"/>
  </g>
</svg>